<svg width="208" height="64" viewBox="0 0 208 64" fill="none" xmlns="http://www.w3.org/2000/svg">
<path d="M42.1747 0L21.0873 21.0874H42.1747V63.2614L63.2621 42.2239V0" fill="#EA5515"/>
<path d="M21.0881 63.2614L42.1755 42.174H21.0881V0L0 21.0367V63.2614" fill="#2C2C84"/>
<path d="M150.456 43.7304C143.067 43.7304 138.913 38.3129 138.913 31.6164C138.913 26.24 141.937 19.4921 150.246 19.4921C155.433 19.4921 158.779 22.6621 159.964 24.1384L166.696 17.4067C162.634 12.5594 156.538 9.47457 149.719 9.47457C137.491 9.47457 127.841 18.5257 127.841 31.6164C127.841 43.8448 137.491 53.7582 149.719 53.7582C157.04 53.7582 163.529 50.203 167.559 44.7268L160.784 37.9511C158.642 41.3089 155.143 43.7304 150.456 43.7304ZM190.832 43.756H182.429V35.3293H190.832C193.444 35.3293 196.088 36.3588 196.088 39.5309C196.088 42.7038 193.444 43.756 190.832 43.756ZM191.888 26.3449H182.429V20.0322H203.491V10.543H171.358V52.7177C171.358 52.7177 187.151 52.717 192.414 52.717C200.855 52.7162 207.183 48.4853 207.183 39.5309C207.183 30.5612 200.855 26.3449 191.888 26.3449ZM84.3488 52.7177H95.42V20.0322H112.29V52.7177H123.36V10.543H84.3488" fill="#2C2C84"/>
</svg>
